<?xml version="1.0" encoding="UTF-8"?>
<svg id="logo_design" xmlns="http://www.w3.org/2000/svg" version="1.1" viewBox="0 0 566.93 283.46">
  <!-- Generator: Adobe Illustrator 29.0.1, SVG Export Plug-In . SVG Version: 2.1.0 Build 192)  -->
  <defs>
    <style>
      .st0 {
        fill: none;
      }

      .st1 {
        fill: #c3c2c2;
      }

      .st2 {
        fill: #1a1a1a;
      }
    </style>
  </defs>
  <path class="st2" d="M493,82.59c-1.02-2.43-2.25-4.78-3.71-6.98-1.16-1.75-2.53-3.34-3.99-4.84-1.33-1.35-2.9-2.65-4.86-2.85-2.03-.21-3.98.83-5.61,2.06-4.06,3.05-6.55,7.38-8.69,11.88-2.07,4.35-3.36,8.78-3.62,12.49-.42,5.87,1.88,7.87,3.28,8.54.5.24,1.21.46,2.1.46,1.61,0,3.83-.71,6.59-3.3,1.66-1.56,3.29-3.59,4.78-5.93,3.2,5.59,7.38,9.87,11.2,9.87.65,0,1.3-.12,1.92-.39,5.28-2.23,4.31-12.26.62-21.02ZM479.49,84.7c-.96-2.9-1.51-5.69-1.57-8.07-.03-1.36-.3-4.3,1.64-4.53,2.56-.3,1.98,3.55,1.84,4.99-.26,2.61-.98,5.16-1.92,7.6ZM471.7,97.1c-2,1.88-3.56,2.42-4.17,2.13-.6-.29-1.17-1.84-.97-4.58.23-3.21,1.38-7.13,3.24-11.03,1.2-2.53,2.6-4.82,4.08-6.73.12,3.69,1.19,8.11,3.04,12.49.06.15.13.29.19.44-1.63,2.96-3.5,5.51-5.4,7.28ZM490.81,99.88c-1.39.58-5.68-2.8-9.19-9.95.09-.18.18-.36.27-.54,1.93-4.05,3.25-8.4,3.58-12.14,1.39,1.98,2.69,4.34,3.78,6.93,3.63,8.62,3.07,15.06,1.55,15.7Z"/>
  <path class="st1" d="M179.74,109.26c5.18-40.85,41.54-70.11,82.15-66.94-31.7-11.02-68.3-.77-89.23,28.03-24.4,33.59-18.13,80.99,14.17,107.07,16.1,13,35.67,18.57,54.68,17.26.16-.01.17-.24.01-.27-39.56-7.53-66.93-44.66-61.79-85.15Z"/>
  <g>
    <path class="st2" d="M85.91,239.42l-6.04-11.14h4.01l2.74,5.38c.56,1.09,1.19,2.59,1.19,2.59h.05s.68-1.5,1.22-2.59l2.69-5.38h3.86l-6.04,11.14v7h-3.68v-7Z"/>
    <path class="st2" d="M94.69,239.93c0-3.88,2.77-6.88,6.8-6.88s6.8,2.99,6.8,6.88-2.77,6.88-6.8,6.88-6.8-2.99-6.8-6.88ZM104.79,239.93c0-2.54-1.19-4.26-3.3-4.26s-3.3,1.73-3.3,4.26,1.17,4.24,3.3,4.24,3.3-1.7,3.3-4.24Z"/>
    <path class="st2" d="M118.11,246.43v-1.52h-.08c-.89,1.19-1.9,1.88-3.73,1.88-2.89,0-4.52-1.85-4.52-4.69v-8.68h3.43v8.09c0,1.52.69,2.36,2.16,2.36,1.62,0,2.61-1.22,2.61-2.94v-7.51h3.45v13.02h-3.32Z"/>
    <path class="st2" d="M128.52,235.49h.08c.79-1.47,1.68-2.23,3.2-2.23.38,0,.61.02.81.1v3.02h-.08c-2.26-.23-3.88.96-3.88,3.7v6.34h-3.45v-13.02h3.33v2.08Z"/>
    <path class="st2" d="M144.16,237.39c0-5.43,3.4-9.47,8.75-9.47s8.73,4.04,8.73,9.47-3.37,9.44-8.73,9.44-8.75-4.01-8.75-9.44ZM157.88,237.39c0-3.63-1.62-6.45-4.95-6.45s-5.02,2.82-5.02,6.45,1.7,6.42,5.02,6.42,4.95-2.82,4.95-6.42Z"/>
    <path class="st2" d="M163.88,233.41h3.32v1.62h.08c.84-1.14,2.06-1.98,3.83-1.98,3.45,0,5.66,2.82,5.66,6.88s-2.28,6.88-5.63,6.88c-1.83,0-3.02-.74-3.76-1.85h-.05v5.73h-3.45v-17.28ZM173.27,240.03c0-2.46-.86-4.19-2.99-4.19s-3.02,1.85-3.02,4.19,1.09,3.91,3.15,3.91c1.75,0,2.87-1.45,2.87-3.91Z"/>
    <path class="st2" d="M178.12,233.41h1.8v-4.06h3.37v4.06h2.23v2.28h-2.23v6.9c0,.96.53,1.29,1.29,1.29.43,0,1.02-.03,1.02-.03v2.54s-.79.05-2.16.05c-1.68,0-3.53-.66-3.53-3.12v-7.64h-1.8v-2.28Z"/>
    <path class="st2" d="M189.33,228.28h3.45v3.1h-3.45v-3.1ZM189.33,233.41h3.45v13.02h-3.45v-13.02Z"/>
    <path class="st2" d="M196.54,233.41h3.32v1.75h.08c.71-1.19,1.98-2.11,3.78-2.11,1.65,0,2.97.91,3.6,2.28h.05c.89-1.42,2.26-2.28,3.91-2.28,2.74,0,4.29,1.78,4.29,4.62v8.75h-3.45v-8.17c0-1.47-.74-2.23-2-2.23-1.45,0-2.33,1.12-2.33,2.84v7.56h-3.45v-8.17c0-1.47-.74-2.23-2-2.23-1.4,0-2.33,1.12-2.33,2.84v7.56h-3.45v-13.02Z"/>
    <path class="st2" d="M226.01,244.98h-.05c-.66.99-1.6,1.75-3.83,1.75-2.66,0-4.54-1.4-4.54-3.98,0-2.87,2.33-3.78,5.23-4.19,2.16-.3,3.15-.48,3.15-1.47s-.74-1.55-2.18-1.55c-1.62,0-2.41.58-2.51,1.83h-3.07c.1-2.28,1.8-4.29,5.61-4.29s5.48,1.75,5.48,4.8v6.62c0,.99.15,1.57.46,1.8v.13h-3.32c-.2-.25-.33-.86-.41-1.45ZM226.03,241.83v-1.95c-.61.35-1.55.56-2.41.76-1.8.41-2.69.81-2.69,2.03s.81,1.65,2.03,1.65c1.98,0,3.07-1.22,3.07-2.49Z"/>
    <path class="st2" d="M232.53,228.28h3.45v18.14h-3.45v-18.14Z"/>
    <path class="st2" d="M250.12,228.28h8.32c3.5,0,5.84,2.03,5.84,5.05,0,2.13-.99,3.76-3.32,4.39v.08c1.67.48,2.54,1.45,2.77,3.65.25,2.56.15,4.52.79,4.8v.18h-3.53c-.46-.2-.51-2.23-.66-4.19-.15-1.98-1.27-3.1-3.55-3.1h-2.97v7.28h-3.68v-18.14ZM253.8,236.3h3.91c2,0,2.99-1.04,2.99-2.49s-.94-2.56-2.89-2.56h-4.01v5.05Z"/>
    <path class="st2" d="M266.23,239.9c0-3.86,2.61-6.85,6.42-6.85,4.19,0,6.42,3.2,6.42,7.84h-9.44c.25,2,1.37,3.25,3.32,3.25,1.34,0,2.13-.61,2.51-1.6h3.4c-.48,2.31-2.54,4.26-5.89,4.26-4.31,0-6.75-3.02-6.75-6.9ZM269.69,238.51h5.78c-.1-1.65-1.19-2.79-2.77-2.79-1.83,0-2.72,1.09-3.02,2.79Z"/>
    <path class="st2" d="M281.56,239.93c0-3.88,2.54-6.88,6.5-6.88,3.37,0,5.46,1.95,5.91,4.77h-3.37c-.23-1.14-1.12-2-2.39-2-2.08,0-3.15,1.6-3.15,4.11s.99,4.11,3.1,4.11c1.39,0,2.38-.74,2.61-2.21h3.32c-.23,2.77-2.39,4.97-5.86,4.97-4.11,0-6.67-2.99-6.67-6.88Z"/>
    <path class="st2" d="M295.98,239.93c0-3.88,2.77-6.88,6.8-6.88s6.8,2.99,6.8,6.88-2.77,6.88-6.8,6.88-6.8-2.99-6.8-6.88ZM306.08,239.93c0-2.54-1.19-4.26-3.3-4.26s-3.3,1.73-3.3,4.26,1.17,4.24,3.3,4.24,3.3-1.7,3.3-4.24Z"/>
    <path class="st2" d="M311.84,246.81h3.43c.28.81,1.02,1.45,2.61,1.45,1.95,0,2.89-.94,2.89-2.72v-1.42h-.08c-.76.86-1.75,1.52-3.4,1.52-2.89,0-5.73-2.28-5.73-6.22s2.33-6.37,5.63-6.37c1.62,0,2.82.63,3.6,1.73h.05v-1.37h3.32v12.03c0,1.83-.58,3.07-1.55,3.96-1.09,1.02-2.77,1.47-4.69,1.47-3.55,0-5.73-1.52-6.09-4.06ZM320.95,239.35c0-1.9-1.02-3.53-3.1-3.53-1.75,0-2.92,1.37-2.92,3.55s1.17,3.5,2.94,3.5c2.18,0,3.07-1.6,3.07-3.53Z"/>
    <path class="st2" d="M330.29,235.18h.08c.89-1.4,2.08-2.13,3.86-2.13,2.69,0,4.49,2.03,4.49,4.87v8.5h-3.45v-7.99c0-1.4-.81-2.39-2.26-2.39-1.52,0-2.64,1.22-2.64,2.99v7.38h-3.45v-13.02h3.37v1.78Z"/>
    <path class="st2" d="M341.87,228.28h3.45v3.1h-3.45v-3.1ZM341.87,233.41h3.45v13.02h-3.45v-13.02Z"/>
    <path class="st2" d="M348.31,233.41h1.8v-4.06h3.37v4.06h2.23v2.28h-2.23v6.9c0,.96.53,1.29,1.29,1.29.43,0,1.01-.03,1.01-.03v2.54s-.79.05-2.16.05c-1.67,0-3.53-.66-3.53-3.12v-7.64h-1.8v-2.28Z"/>
    <path class="st2" d="M359.02,228.28h3.45v3.1h-3.45v-3.1ZM359.02,233.41h3.45v13.02h-3.45v-13.02Z"/>
    <path class="st2" d="M365.6,239.93c0-3.88,2.77-6.88,6.8-6.88s6.8,2.99,6.8,6.88-2.77,6.88-6.8,6.88-6.8-2.99-6.8-6.88ZM375.7,239.93c0-2.54-1.19-4.26-3.3-4.26s-3.3,1.73-3.3,4.26,1.17,4.24,3.3,4.24,3.3-1.7,3.3-4.24Z"/>
    <path class="st2" d="M385.19,235.18h.08c.89-1.4,2.08-2.13,3.86-2.13,2.69,0,4.49,2.03,4.49,4.87v8.5h-3.45v-7.99c0-1.4-.81-2.39-2.26-2.39-1.52,0-2.64,1.22-2.64,2.99v7.38h-3.45v-13.02h3.37v1.78Z"/>
    <path class="st2" d="M407.45,240.59v-12.31h3.68v12.31c0,1.88.94,3.2,3.4,3.2,2.33,0,3.43-1.37,3.43-3.25v-12.26h3.68v12.31c0,3.88-2.39,6.14-7.03,6.14s-7.16-2.21-7.16-6.14Z"/>
    <path class="st2" d="M424.76,233.41h1.8v-4.06h3.37v4.06h2.23v2.28h-2.23v6.9c0,.96.53,1.29,1.29,1.29.43,0,1.01-.03,1.01-.03v2.54s-.79.05-2.16.05c-1.67,0-3.53-.66-3.53-3.12v-7.64h-1.8v-2.28Z"/>
    <path class="st2" d="M435.47,228.28h3.45v3.1h-3.45v-3.1ZM435.47,233.41h3.45v13.02h-3.45v-13.02Z"/>
    <path class="st2" d="M442.73,228.28h3.45v18.14h-3.45v-18.14Z"/>
    <path class="st2" d="M449.98,228.28h3.45v3.1h-3.45v-3.1ZM449.98,233.41h3.45v13.02h-3.45v-13.02Z"/>
    <path class="st2" d="M456.43,233.41h1.8v-4.06h3.37v4.06h2.23v2.28h-2.23v6.9c0,.96.53,1.29,1.29,1.29.43,0,1.01-.03,1.01-.03v2.54s-.79.05-2.16.05c-1.67,0-3.53-.66-3.53-3.12v-7.64h-1.8v-2.28Z"/>
    <path class="st2" d="M467.42,247.97h1.22c1.37,0,1.93-.71,1.93-1.78,0-.71-.25-1.55-.99-3.53l-3.5-9.26h3.63l1.93,5.86c.41,1.19.84,2.84.84,2.84h.05s.35-1.65.76-2.84l1.83-5.86h3.48l-4.54,13.35c-.99,2.89-1.95,3.93-4.59,3.93h-2.03v-2.72Z"/>
  </g>
  <path class="st2" d="M277.49,43.49c-16.34-9.29-35.63-12.81-54.31-9.9-18.95,2.95-36.47,12.43-49.34,26.71-14.99,16.63-22.61,38.11-21.45,60.47,1.16,22.36,10.96,42.93,27.59,57.92,15.53,13.99,35.27,21.56,56.02,21.56,1.48,0,2.96-.04,4.45-.12,1.68-.09,2.97-1.52,2.88-3.2-.09-1.68-1.55-2.96-3.2-2.88-20.73,1.08-40.65-5.98-56.08-19.89-15.43-13.9-24.51-32.98-25.59-53.72-1.08-20.74,5.99-40.65,19.89-56.08,24.25-26.91,64.67-33.46,96.11-15.59,1.46.83,3.32.32,4.15-1.14.83-1.46.32-3.32-1.14-4.15Z"/>
  <path class="st2" d="M315.19,88.5c-.56-1.59-2.3-2.42-3.88-1.86-1.59.56-2.42,2.3-1.86,3.88,1.25,3.54,2.25,7.21,2.97,10.9.28,1.45,1.56,2.46,2.99,2.46.19,0,.39-.02.59-.06,1.65-.32,2.73-1.92,2.41-3.57-.78-3.98-1.85-7.93-3.2-11.76Z"/>
  <path class="st2" d="M310.31,77.34c-1.89-3.58-4.06-7.06-6.45-10.34-.99-1.36-2.9-1.65-4.26-.66-1.36.99-1.65,2.9-.66,4.26,2.22,3.04,4.23,6.26,5.98,9.58.55,1.04,1.6,1.63,2.7,1.63.48,0,.96-.11,1.42-.35,1.49-.78,2.06-2.63,1.28-4.11Z"/>
  <path class="st2" d="M292.25,54.15c-1.74-1.56-3.56-3.07-5.41-4.49-1.34-1.02-3.25-.76-4.27.58-1.02,1.34-.76,3.25.58,4.27,1.72,1.31,3.41,2.71,5.02,4.17,1.18,1.07,2.35,2.18,3.46,3.31.6.61,1.38.91,2.17.91s1.54-.29,2.14-.87c1.2-1.18,1.22-3.11.04-4.31-1.2-1.22-2.45-2.42-3.72-3.57Z"/>
  <path class="st2" d="M123.92,115.28l-9.33,17.98c-3.47,6.82-6.55,12.98-9.08,19.01-2.67-6.33-5.52-12.15-8.95-18.89l-8.9-17.88c-2.53-5.09-7.64-8.26-13.34-8.26h-3.46l28.5,53.68v39.83h11.09v-40.07l30.1-53.44h-3.41c-5.58,0-10.65,3.08-13.22,8.03Z"/>
  <path class="st2" d="M398.39,175.14c-2.29-10.55-6.58-16.9-13.1-19.38,10.66-4.13,16.76-12.77,16.76-23.84,0-7.07-2.58-13.49-7.08-17.61-5.6-5.23-13.77-7.66-25.72-7.66-7.36,0-15.45.75-21.11,1.95l-.4.09v92.08h11.09v-40.91h10.78c10.38,0,15.48,5.09,18.2,18.17.94,4.48,1.81,8.35,2.58,11.51,1.61,6.61,7.49,11.22,14.3,11.22h.83l-.38-.74c-1.9-3.67-4.07-12.6-6.75-24.88ZM390.84,133.12c0,10.9-8.09,17.94-20.61,17.94h-11.39v-34.53c2.57-.55,6.6-.87,10.9-.87,9.62,0,21.1,3.03,21.1,17.46Z"/>
  <path class="st2" d="M479.26,107.97c-1.68,0-3.05,1.36-3.05,3.05v11.75c0,1.68,1.36,3.05,3.05,3.05s3.05-1.36,3.05-3.05v-11.75c0-1.68-1.36-3.05-3.05-3.05Z"/>
  <path class="st2" d="M479.26,131.47c-1.68,0-3.05,1.36-3.05,3.05v11.75c0,1.68,1.36,3.05,3.05,3.05s3.05-1.36,3.05-3.05v-11.75c0-1.68-1.36-3.05-3.05-3.05Z"/>
  <path class="st2" d="M467.39,190.57c-3.61,1.78-7.74,2.74-11.95,2.8-1.43.02-2.86-.07-4.26-.26-5.07-.67-9.66-2.6-13.28-5.57-8.21-6.74-9.16-17.59-9.16-25.17v-45.88c0-5.83-4.75-10.58-10.58-10.58h-.51v56.35c0,24.83,11.17,38.5,31.46,38.5,8.7,0,16.21-2.5,21.72-7.23,4.29-3.68,7.09-8.36,8.6-13.8h0c-3.18,5.11-6.95,8.33-12.05,10.85Z"/>
  <path class="st1" d="M478.01,153.1c-1.31,17.52-15.93,31.34-33.79,31.34-1.39,0-2.75-.09-4.09-.25,4.31,3.51,9.8,5.62,15.79,5.62,13.81,0,25-11.19,25-25,0-4.23-1.05-8.21-2.91-11.71Z"/>
  <path class="st0" d="M315.01,169.83c2.85-5.88,2.57-12.39-.6-13.93-2.82-1.37-7.29,1.47-10.26,6.22.03.16.07.31.1.47.61,3.52.54,7.02-.13,10.11l4.53,4.53c2.35-1.41,4.75-4.07,6.36-7.4Z"/>
  <path class="st2" d="M320.24,188.83l-8.65-8.65c2.72-1.86,5.24-4.82,7.06-8.58,4-8.24,2.91-16.74-2.48-19.36-4.13-2-9.4.11-13.44,4.91-.98-2.52-2.28-4.78-3.86-6.59-2.88-3.32-6.32-4.82-9.69-4.24-3.37.58-6.1,3.16-7.7,7.25-.19.48-.35.97-.5,1.47-8.44-2.08-17.68-.05-24.26,6.2-4.21,4-6.9,9.13-7.8,14.74-1.23-1.24-2.25-3.37-3.11-6.53-.83-3.04-2.57-9.38-7.88-10.92-2.94-.85-5.74.13-8.2.99-1.48.52-2.87,1.01-4.21,1.11-3.67.28-7.08-2.52-8.83-5.44-.58-.96-1.82-1.27-2.79-.7-.96.58-1.27,1.82-.7,2.79,2.92,4.87,7.9,7.78,12.63,7.4,1.86-.15,3.58-.75,5.24-1.33,2.17-.76,4.04-1.42,5.73-.92,2.75.8,4.07,4.36,5.09,8.09.99,3.6,2.74,8.35,6.71,10.14.12,6.78,2.8,13.14,7.66,18,.38.36.91.57,1.43.57h58.24c2.51,0,4.67-1.44,5.63-3.76.96-2.32.46-4.87-1.32-6.64ZM304.25,162.59c-.03-.16-.07-.31-.1-.47,2.97-4.75,7.43-7.59,10.26-6.22,3.18,1.54,3.46,8.05.6,13.93-1.62,3.33-4.01,5.99-6.36,7.4l-4.53-4.53c.67-3.09.74-6.59.13-10.11ZM317.81,193.92c-.12.29-.62,1.26-1.88,1.26h-57.4c-3.87-4.17-5.96-9.56-5.88-15.28.08-5.99,2.52-11.56,6.87-15.7,5.6-5.32,13.49-6.99,20.69-5.14-.26,2.44-.18,5.03.27,7.65.9,5.17,3.14,9.87,6.16,12.88.4.4.92.59,1.44.59s1.04-.2,1.44-.6c.79-.79.79-2.08,0-2.87-2.44-2.44-4.27-6.34-5.03-10.7-.33-1.9-.43-3.77-.33-5.55.09-1.47.31-2.87.69-4.15.13-.43.27-.85.42-1.25.62-1.57,2.03-4.28,4.61-4.73,2.57-.44,4.83,1.63,5.94,2.9,1.83,2.1,3.22,4.98,4.03,8.23.15.6.28,1.2.39,1.82.35,2.01.44,3.99.3,5.85h0c-.12,1.73-.45,3.35-.97,4.77-.3.81-.64,1.58-1.06,2.25-.59.95-.31,2.2.64,2.8.95.59,2.2.31,2.8-.64.26-.41.49-.86.71-1.31l.94.94,4.11,4.11,9.66,9.66c.89.89.56,1.92.44,2.22Z"/>
</svg>