<?xml version="1.0" encoding="UTF-8"?>
<svg id="logo_design" xmlns="http://www.w3.org/2000/svg" version="1.1" viewBox="0 0 368.5 368.5">
  <!-- Generator: Adobe Illustrator 29.0.1, SVG Export Plug-In . SVG Version: 2.1.0 Build 192)  -->
  <defs>
    <style>
      .st0 {
        fill: #edd759;
      }

      .st1 {
        fill: #002044;
      }
    </style>
  </defs>
  <g>
    <path class="st1" d="M128.47,157.85l-15.36,27.27v20.5h-5.2v-20.37l-14.54-27.4h2.27c2.26,0,4.32,1.28,5.33,3.3l5,10.05c1.82,3.57,3.32,6.64,4.76,10.09h.19c1.32-3.2,2.95-6.46,4.83-10.16l5.23-10.08c1.02-1.97,3.06-3.21,5.28-3.21h2.21Z"/>
    <path class="st1" d="M172.1,181.3c0,16.8-9.4,25.08-20.69,25.08-11.85,0-20.25-9.34-20.25-24.26s8.84-25.01,20.81-25.01,20.12,9.78,20.12,24.2ZM136.61,181.99c0,10.16,5.27,20.06,14.98,20.06s15.05-9.59,15.05-20.5c0-9.59-4.7-20.12-14.92-20.12s-15.11,10.41-15.11,20.56Z"/>
    <path class="st1" d="M198.61,182.74c3.7,1.19,5.89,4.77,7.02,9.97,1.5,6.9,2.57,11.1,3.51,12.91h0c-3.38,0-6.32-2.3-7.13-5.59-.41-1.69-.86-3.69-1.34-5.95-1.38-6.64-4.01-9.59-9.65-9.59h-5.83v21.13h-5.2v-47.08c2.95-.63,7.08-1,10.85-1,6.21,0,10.28,1.25,13.1,3.89,2.26,2.07,3.57,5.33,3.57,8.9,0,6.33-3.82,10.41-8.9,12.23v.19ZM191.34,180.48c6.64,0,10.91-3.76,10.91-9.53,0-7.08-5.33-9.28-11.16-9.28-2.82,0-4.83.25-5.89.5v18.3h6.14Z"/>
    <path class="st1" d="M249.02,186.44c0,14.36-7.4,19.94-16.93,19.94-8.9,0-15.99-5.2-15.99-19.62v-28.84h0c2.87,0,5.2,2.33,5.2,5.2v23.7c0,10.85,4.76,15.23,11.03,15.23,6.9,0,11.47-4.64,11.47-15.23v-23.7c0-2.87,2.33-5.2,5.2-5.2h0v28.52Z"/>
  </g>
  <path class="st0" d="M136.51,268.85c-56.25-34.98-74.66-107.77-42.79-165.03-36.69,38.26-46.58,97.15-20.36,146.52,32.69,61.56,109.09,84.96,170.65,52.27,28.74-15.26,49.15-40.05,59.43-68.4-37.25,53.92-110.68,69.62-166.93,34.64Z"/>
  <path class="st1" d="M325.47,191.97c-.6-4.78-1.68-9.53-3.36-14.05-.99-2.64-2.3-5.32-3.67-7.79-1.11-2-2.63-3.89-4.72-4.82-2.59-1.16-5.65-.65-8.25.48-7.16,3.12-13.39,8.5-18.49,14.32-4.91,5.61-8.68,11.66-10.63,17.05-2.2,6.11-1.81,10.87,1.09,13.41,1.38,1.21,3.1,1.75,5.03,1.75,5.37,0,12.42-4.18,18.72-9.94,1.07,4.56,2.56,8.7,4.37,12.04,2.88,5.29,6.37,8.15,9.92,8.15.27,0,.55-.02.82-.05,8.31-1.04,10.93-16.52,9.18-30.57ZM312.62,178.48c-.65,1.65-1.49,3.26-2.28,4.74-.82,1.54-1.74,3.03-2.72,4.48-.5.74-1.02,1.47-1.56,2.2-.27.37-1.74,1.79-1.7,2.19-.35-4.05-.43-8.25.2-12.31.32-2.05.82-4.07,1.55-6.02.65-1.74,1.5-3.83,3.61-4.12,1.37-.19,2.71.67,3.37,1.84.67,1.18.74,2.63.47,3.96-.2,1.02-.53,2.04-.94,3.06ZM280.58,206.98c-1.26-1.11-1.16-4.25.26-8.19,1.74-4.84,5.2-10.36,9.72-15.53h0c3.36-3.84,6.99-7.11,10.5-9.51-1.79,5.91-2.13,13.86-1.18,21.41.07.55.16,1.1.24,1.64-8.89,9.02-17.28,12.17-19.54,10.18ZM315.7,217.8c-1.67.22-3.95-1.95-5.95-5.64-1.99-3.66-3.55-8.47-4.53-13.78.39-.42.77-.84,1.15-1.27,4.91-5.61,8.68-11.66,10.63-17.05.15-.42.26-.81.38-1.21,1.45,3.66,2.68,8.29,3.35,13.72,1.85,14.8-1.75,24.83-5.03,25.24Z"/>
  <g>
    <path class="st1" d="M173.6,313.63c-19.78,0-39.44-4.53-57.72-13.5-31.46-15.45-55.02-42.22-66.34-75.39-9.83-28.81-9.33-60.33,1.43-88.76.78-2.06,3.08-3.09,5.13-2.31,2.06.78,3.09,3.07,2.31,5.13-10.11,26.7-10.58,56.31-1.34,83.37,10.63,31.16,32.76,56.3,62.31,70.82,29.55,14.51,62.98,16.64,94.13,6.01,36.35-12.41,64.35-40.39,76.82-76.78.71-2.08,2.98-3.19,5.06-2.47,2.08.71,3.19,2.98,2.47,5.06-13.27,38.73-43.08,68.52-81.78,81.73-13.9,4.74-28.23,7.1-42.5,7.1Z"/>
    <path class="st1" d="M61.72,125.97c-.64,0-1.28-.15-1.88-.48-1.94-1.04-2.66-3.46-1.62-5.39,13.71-25.44,35.75-45.89,62.07-57.59,2.01-.89,4.36.01,5.25,2.02.89,2.01-.01,4.36-2.02,5.25-24.72,10.99-45.43,30.2-58.3,54.09-.72,1.33-2.09,2.09-3.51,2.09Z"/>
    <path class="st1" d="M137.44,64.4c-1.71,0-3.3-1.12-3.81-2.84-.63-2.11.57-4.32,2.68-4.95,14.88-4.44,30.23-6.19,45.64-5.22,2.19.14,3.86,2.03,3.72,4.22-.14,2.19-2,3.85-4.22,3.72-14.46-.91-28.88.74-42.86,4.9-.38.11-.76.17-1.14.17Z"/>
    <path class="st1" d="M214.12,65.7c-.42,0-.85-.07-1.27-.21-4.77-1.6-9.69-2.93-14.61-3.93-2.15-.44-3.54-2.54-3.1-4.7s2.54-3.54,4.69-3.1c5.24,1.07,10.48,2.48,15.56,4.18,2.08.7,3.21,2.96,2.51,5.04-.56,1.66-2.11,2.71-3.77,2.71Z"/>
  </g>
</svg>